<mxfile host="app.diagrams.net" agent="Mozilla/5.0 (Windows NT 10.0; Win64; x64) AppleWebKit/537.36 (KHTML, like Gecko) Chrome/132.0.0.0 Safari/537.36" version="26.0.11" pages="2">
  <diagram id="JpZkx26YbNmgNPjJ96g1" name="tree">
    <mxGraphModel dx="2901" dy="1132" grid="1" gridSize="10" guides="1" tooltips="1" connect="1" arrows="1" fold="1" page="1" pageScale="1" pageWidth="827" pageHeight="1169" math="0" shadow="0">
      <root>
        <mxCell id="0" />
        <mxCell id="1" parent="0" />
        <mxCell id="skaffKzBVd656h6PqjQr-44" value="" style="endArrow=classic;html=1;rounded=0;exitX=0.5;exitY=0;exitDx=0;exitDy=0;entryX=1;entryY=1;entryDx=0;entryDy=0;strokeWidth=2;fillColor=#a0522d;strokeColor=#6D1F00;fontSize=18;" parent="1" source="skaffKzBVd656h6PqjQr-10" target="skaffKzBVd656h6PqjQr-45" edge="1">
          <mxGeometry width="50" height="50" relative="1" as="geometry">
            <mxPoint x="409" y="1210" as="sourcePoint" />
            <mxPoint x="630" y="1130" as="targetPoint" />
          </mxGeometry>
        </mxCell>
        <mxCell id="skaffKzBVd656h6PqjQr-49" value="&lt;div style=&quot;font-size: 18px;&quot;&gt;Evaluating&amp;nbsp; and&amp;nbsp; Training on Generative&lt;/div&gt;&lt;div style=&quot;font-size: 18px;&quot;&gt;Agents&lt;/div&gt;" style="rounded=1;whiteSpace=wrap;html=1;fillColor=#BF6236;strokeColor=none;fontColor=#FFFFFF;fontSize=18;shadow=1;glass=0;" parent="1" vertex="1">
          <mxGeometry x="452" y="885.64" width="150" height="94.7" as="geometry" />
        </mxCell>
        <mxCell id="skaffKzBVd656h6PqjQr-51" value="" style="endArrow=classic;html=1;rounded=0;entryX=0.036;entryY=0.961;entryDx=0;entryDy=0;strokeWidth=2;exitX=0.5;exitY=0;exitDx=0;exitDy=0;fillColor=#a0522d;strokeColor=#6D1F00;fontSize=18;entryPerimeter=0;" parent="1" source="skaffKzBVd656h6PqjQr-10" target="skaffKzBVd656h6PqjQr-49" edge="1">
          <mxGeometry width="50" height="50" relative="1" as="geometry">
            <mxPoint x="366" y="1010" as="sourcePoint" />
            <mxPoint x="401" y="1120" as="targetPoint" />
          </mxGeometry>
        </mxCell>
        <mxCell id="skaffKzBVd656h6PqjQr-130" value="" style="endArrow=classic;html=1;rounded=0;entryX=0.5;entryY=1;entryDx=0;entryDy=0;strokeWidth=2;fillColor=#a0522d;strokeColor=#6D1F00;fontSize=18;exitX=0.5;exitY=0;exitDx=0;exitDy=0;" parent="1" source="skaffKzBVd656h6PqjQr-10" target="skaffKzBVd656h6PqjQr-48" edge="1">
          <mxGeometry width="50" height="50" relative="1" as="geometry">
            <mxPoint x="380" y="1010" as="sourcePoint" />
            <mxPoint x="517" y="961" as="targetPoint" />
          </mxGeometry>
        </mxCell>
        <mxCell id="skaffKzBVd656h6PqjQr-55" style="rounded=0;orthogonalLoop=1;jettySize=auto;html=1;exitX=0;exitY=0.5;exitDx=0;exitDy=0;entryX=1.008;entryY=0.399;entryDx=0;entryDy=0;fontSize=18;entryPerimeter=0;fontColor=#FFFFFF;strokeWidth=2;" parent="1" source="skaffKzBVd656h6PqjQr-45" target="skaffKzBVd656h6PqjQr-94" edge="1">
          <mxGeometry relative="1" as="geometry">
            <mxPoint x="-20" y="956.2750000000002" as="targetPoint" />
          </mxGeometry>
        </mxCell>
        <mxCell id="skaffKzBVd656h6PqjQr-59" style="rounded=0;orthogonalLoop=1;jettySize=auto;html=1;exitX=0;exitY=0.5;exitDx=0;exitDy=0;entryX=1;entryY=1;entryDx=0;entryDy=0;fontSize=18;fontColor=#FFFFFF;strokeWidth=2;" parent="1" source="skaffKzBVd656h6PqjQr-45" target="skaffKzBVd656h6PqjQr-93" edge="1">
          <mxGeometry relative="1" as="geometry">
            <mxPoint x="-110" y="877.8349999999999" as="targetPoint" />
          </mxGeometry>
        </mxCell>
        <mxCell id="skaffKzBVd656h6PqjQr-45" value="Solving Complex Tasks" style="rounded=1;whiteSpace=wrap;html=1;fillColor=#BF6236;strokeColor=none;fontColor=#FFFFFF;fontSize=18;glass=0;shadow=1;dashed=1;" parent="1" vertex="1">
          <mxGeometry x="137.75" y="885.64" width="88" height="75" as="geometry" />
        </mxCell>
        <mxCell id="skaffKzBVd656h6PqjQr-68" style="rounded=0;orthogonalLoop=1;jettySize=auto;html=1;exitX=0.5;exitY=0;exitDx=0;exitDy=0;entryX=0.5;entryY=1;entryDx=0;entryDy=0;fontSize=18;fontColor=#FFFFFF;strokeWidth=2;" parent="1" source="skaffKzBVd656h6PqjQr-48" target="skaffKzBVd656h6PqjQr-66" edge="1">
          <mxGeometry relative="1" as="geometry" />
        </mxCell>
        <mxCell id="skaffKzBVd656h6PqjQr-69" style="rounded=0;orthogonalLoop=1;jettySize=auto;html=1;exitX=0.5;exitY=0;exitDx=0;exitDy=0;entryX=1;entryY=1;entryDx=0;entryDy=0;fontSize=18;fontColor=#FFFFFF;strokeWidth=2;" parent="1" source="skaffKzBVd656h6PqjQr-48" target="skaffKzBVd656h6PqjQr-67" edge="1">
          <mxGeometry relative="1" as="geometry" />
        </mxCell>
        <mxCell id="skaffKzBVd656h6PqjQr-48" value="&lt;div style=&quot;font-size: 18px;&quot;&gt;Simulating Specific S&lt;span style=&quot;background-color: initial; font-size: 18px;&quot;&gt;cenarios&lt;/span&gt;&lt;/div&gt;" style="rounded=1;whiteSpace=wrap;html=1;fillColor=light-dark(#BF6236,#CC7C56);strokeColor=none;fontColor=#FFFFFF;fontSize=18;glass=0;shadow=1;gradientColor=none;dashed=1;" parent="1" vertex="1">
          <mxGeometry x="246.81" y="897.51" width="183.19" height="58.13" as="geometry" />
        </mxCell>
        <mxCell id="skaffKzBVd656h6PqjQr-62" style="rounded=0;orthogonalLoop=1;jettySize=auto;html=1;exitX=0.5;exitY=0;exitDx=0;exitDy=0;entryX=0.5;entryY=1;entryDx=0;entryDy=0;fontSize=18;fontColor=#FFFFFF;strokeWidth=2;" parent="1" source="skaffKzBVd656h6PqjQr-49" target="skaffKzBVd656h6PqjQr-60" edge="1">
          <mxGeometry relative="1" as="geometry">
            <mxPoint x="512.375" y="915.64" as="sourcePoint" />
          </mxGeometry>
        </mxCell>
        <mxCell id="skaffKzBVd656h6PqjQr-115" style="rounded=0;orthogonalLoop=1;jettySize=auto;html=1;exitX=0.5;exitY=0;exitDx=0;exitDy=0;entryX=0.5;entryY=1;entryDx=0;entryDy=0;fontSize=18;fontColor=#FFFFFF;" parent="1" source="skaffKzBVd656h6PqjQr-60" target="skaffKzBVd656h6PqjQr-111" edge="1">
          <mxGeometry relative="1" as="geometry">
            <mxPoint x="712" y="819.64" as="targetPoint" />
          </mxGeometry>
        </mxCell>
        <mxCell id="skaffKzBVd656h6PqjQr-60" value="Evaluating" style="rounded=1;whiteSpace=wrap;html=1;fillColor=#008a00;fontColor=#FFFFFF;strokeColor=none;fontSize=18;glass=0;shadow=1;" parent="1" vertex="1">
          <mxGeometry x="520" y="807.51" width="99.75" height="48.13" as="geometry" />
        </mxCell>
        <mxCell id="skaffKzBVd656h6PqjQr-75" style="rounded=0;orthogonalLoop=1;jettySize=auto;html=1;exitX=0.5;exitY=0;exitDx=0;exitDy=0;entryX=0.006;entryY=0.889;entryDx=0;entryDy=0;fontSize=18;fontColor=#FFFFFF;entryPerimeter=0;strokeColor=none;" parent="1" source="skaffKzBVd656h6PqjQr-66" target="skaffKzBVd656h6PqjQr-74" edge="1">
          <mxGeometry relative="1" as="geometry" />
        </mxCell>
        <mxCell id="skaffKzBVd656h6PqjQr-77" style="rounded=0;orthogonalLoop=1;jettySize=auto;html=1;exitX=0.5;exitY=0;exitDx=0;exitDy=0;fontSize=18;entryX=0.25;entryY=1;entryDx=0;entryDy=0;fontColor=#FFFFFF;" parent="1" source="skaffKzBVd656h6PqjQr-66" target="skaffKzBVd656h6PqjQr-76" edge="1">
          <mxGeometry relative="1" as="geometry">
            <mxPoint x="491.9504480543392" y="713.7700000000001" as="targetPoint" />
          </mxGeometry>
        </mxCell>
        <mxCell id="skaffKzBVd656h6PqjQr-87" style="rounded=0;orthogonalLoop=1;jettySize=auto;html=1;exitX=0.5;exitY=0;exitDx=0;exitDy=0;entryX=0.5;entryY=1;entryDx=0;entryDy=0;fontSize=18;fontColor=#FFFFFF;" parent="1" source="skaffKzBVd656h6PqjQr-66" target="skaffKzBVd656h6PqjQr-81" edge="1">
          <mxGeometry relative="1" as="geometry">
            <mxPoint x="414" y="683.7700000000001" as="targetPoint" />
          </mxGeometry>
        </mxCell>
        <mxCell id="skaffKzBVd656h6PqjQr-66" value="Social" style="rounded=1;whiteSpace=wrap;html=1;fillColor=light-dark(#008A00,#CC7C56);strokeColor=none;fontColor=#FFFFFF;fontSize=18;glass=0;shadow=1;" parent="1" vertex="1">
          <mxGeometry x="356" y="811.8999999999999" width="88" height="48.13" as="geometry" />
        </mxCell>
        <mxCell id="skaffKzBVd656h6PqjQr-89" style="rounded=0;orthogonalLoop=1;jettySize=auto;html=1;exitX=0.5;exitY=0;exitDx=0;exitDy=0;entryX=0.534;entryY=1.017;entryDx=0;entryDy=0;fontSize=18;entryPerimeter=0;fontColor=#FFFFFF;" parent="1" source="skaffKzBVd656h6PqjQr-67" target="skaffKzBVd656h6PqjQr-83" edge="1">
          <mxGeometry relative="1" as="geometry">
            <mxPoint x="226" y="695.64" as="targetPoint" />
          </mxGeometry>
        </mxCell>
        <mxCell id="skaffKzBVd656h6PqjQr-67" value="Physical" style="rounded=1;whiteSpace=wrap;html=1;fillColor=light-dark(#008A00,#CC7C56);strokeColor=none;fontColor=#FFFFFF;fontSize=18;glass=0;shadow=1;" parent="1" vertex="1">
          <mxGeometry x="100" y="788.13" width="108.75" height="48.13" as="geometry" />
        </mxCell>
        <mxCell id="skaffKzBVd656h6PqjQr-92" style="rounded=0;orthogonalLoop=1;jettySize=auto;html=1;exitX=0.444;exitY=0.034;exitDx=0;exitDy=0;entryX=0.5;entryY=1;entryDx=0;entryDy=0;fontSize=18;exitPerimeter=0;fontColor=#FFFFFF;" parent="1" source="skaffKzBVd656h6PqjQr-93" target="skaffKzBVd656h6PqjQr-85" edge="1">
          <mxGeometry relative="1" as="geometry">
            <mxPoint x="82" y="811.9" as="targetPoint" />
          </mxGeometry>
        </mxCell>
        <mxCell id="skaffKzBVd656h6PqjQr-74" value="Social Media" style="rounded=1;whiteSpace=wrap;html=1;strokeColor=none;fillColor=#60A917;fontColor=#FFFFFF;fontSize=18;dashed=1;" parent="1" vertex="1">
          <mxGeometry x="469" y="749.9999999999999" width="88" height="48.13" as="geometry" />
        </mxCell>
        <mxCell id="skaffKzBVd656h6PqjQr-76" value="Economics" style="rounded=1;whiteSpace=wrap;html=1;strokeColor=none;fillColor=#60A917;fontColor=#FFFFFF;fontSize=18;dashed=1;" parent="1" vertex="1">
          <mxGeometry x="469" y="660" width="111" height="48.13" as="geometry" />
        </mxCell>
        <mxCell id="skaffKzBVd656h6PqjQr-81" value="&lt;div&gt;Politics&lt;/div&gt;" style="rounded=1;whiteSpace=wrap;html=1;strokeColor=none;fillColor=#60A917;fontColor=#FFFFFF;fontSize=18;dashed=1;" parent="1" vertex="1">
          <mxGeometry x="370" y="629.9999999999999" width="88" height="48.13" as="geometry" />
        </mxCell>
        <mxCell id="skaffKzBVd656h6PqjQr-82" value="Tiny Society" style="rounded=1;whiteSpace=wrap;html=1;strokeColor=none;fillColor=#60A917;fontColor=#FFFFFF;fontSize=18;dashed=1;" parent="1" vertex="1">
          <mxGeometry x="290" y="684.9999999999999" width="88" height="48.13" as="geometry" />
        </mxCell>
        <mxCell id="skaffKzBVd656h6PqjQr-83" value="Wireless Network" style="rounded=1;whiteSpace=wrap;html=1;strokeColor=none;fillColor=#60A917;fontColor=#FFFFFF;fontSize=18;glass=0;shadow=1;" parent="1" vertex="1">
          <mxGeometry x="171.25" y="641.87" width="109.5" height="48.13" as="geometry" />
        </mxCell>
        <mxCell id="skaffKzBVd656h6PqjQr-84" value="Game" style="rounded=1;whiteSpace=wrap;html=1;strokeColor=none;fillColor=#60A917;fontColor=#FFFFFF;fontSize=18;dashed=1;" parent="1" vertex="1">
          <mxGeometry x="225.75" y="739.9999999999999" width="88" height="48.13" as="geometry" />
        </mxCell>
        <mxCell id="skaffKzBVd656h6PqjQr-85" value="Collective Decision-Making" style="rounded=1;whiteSpace=wrap;html=1;strokeColor=none;fillColor=#60a917;fontColor=#FFFFFF;fontSize=18;shadow=1;glass=0;" parent="1" vertex="1">
          <mxGeometry x="-110" y="708.13" width="178" height="48.13" as="geometry" />
        </mxCell>
        <mxCell id="skaffKzBVd656h6PqjQr-88" style="rounded=0;orthogonalLoop=1;jettySize=auto;html=1;exitX=0.5;exitY=0;exitDx=0;exitDy=0;entryX=0.977;entryY=0.982;entryDx=0;entryDy=0;fontSize=18;entryPerimeter=0;fontColor=#FFFFFF;" parent="1" source="skaffKzBVd656h6PqjQr-66" target="skaffKzBVd656h6PqjQr-84" edge="1">
          <mxGeometry relative="1" as="geometry" />
        </mxCell>
        <mxCell id="skaffKzBVd656h6PqjQr-103" style="rounded=0;orthogonalLoop=1;jettySize=auto;html=1;exitX=0.428;exitY=0.003;exitDx=0;exitDy=0;entryX=1;entryY=1;entryDx=0;entryDy=0;fontSize=18;exitPerimeter=0;fontColor=#FFFFFF;" parent="1" source="skaffKzBVd656h6PqjQr-93" target="skaffKzBVd656h6PqjQr-97" edge="1">
          <mxGeometry relative="1" as="geometry" />
        </mxCell>
        <mxCell id="skaffKzBVd656h6PqjQr-93" value="Reasoning Framework" style="rounded=1;whiteSpace=wrap;html=1;fillColor=#008a00;strokeColor=none;fontColor=#FFFFFF;fontSize=18;glass=0;shadow=1;" parent="1" vertex="1">
          <mxGeometry x="-10" y="849.38" width="108" height="48.13" as="geometry" />
        </mxCell>
        <mxCell id="skaffKzBVd656h6PqjQr-104" style="rounded=0;orthogonalLoop=1;jettySize=auto;html=1;fontSize=18;exitX=-0.002;exitY=0.415;exitDx=0;exitDy=0;exitPerimeter=0;fontColor=#FFFFFF;" parent="1" source="skaffKzBVd656h6PqjQr-94" target="skaffKzBVd656h6PqjQr-98" edge="1">
          <mxGeometry relative="1" as="geometry">
            <mxPoint x="-30" y="940" as="sourcePoint" />
          </mxGeometry>
        </mxCell>
        <mxCell id="skaffKzBVd656h6PqjQr-105" style="rounded=0;orthogonalLoop=1;jettySize=auto;html=1;exitX=0.001;exitY=0.412;exitDx=0;exitDy=0;entryX=1;entryY=0.5;entryDx=0;entryDy=0;fontSize=18;exitPerimeter=0;fontColor=#FFFFFF;" parent="1" source="skaffKzBVd656h6PqjQr-94" target="skaffKzBVd656h6PqjQr-99" edge="1">
          <mxGeometry relative="1" as="geometry">
            <mxPoint x="110" y="956.2750000000002" as="sourcePoint" />
            <mxPoint x="-160" y="974.705" as="targetPoint" />
          </mxGeometry>
        </mxCell>
        <mxCell id="skaffKzBVd656h6PqjQr-94" value="Communication Optimization" style="rounded=1;whiteSpace=wrap;html=1;fillColor=#008a00;strokeColor=none;fontColor=#FFFFFF;fontSize=18;glass=0;shadow=1;" parent="1" vertex="1">
          <mxGeometry x="-30" y="926.57" width="140" height="48.13" as="geometry" />
        </mxCell>
        <mxCell id="skaffKzBVd656h6PqjQr-97" value="Muti-stage" style="rounded=1;whiteSpace=wrap;html=1;strokeColor=none;fillColor=#60a917;fontColor=#FFFFFF;fontSize=18;glass=0;shadow=1;" parent="1" vertex="1">
          <mxGeometry x="-150" y="775.64" width="90" height="48.13" as="geometry" />
        </mxCell>
        <mxCell id="skaffKzBVd656h6PqjQr-98" value="Speed Optimization" style="rounded=1;whiteSpace=wrap;html=1;strokeColor=none;fillColor=#60a917;fontColor=#FFFFFF;fontSize=18;glass=0;shadow=1;" parent="1" vertex="1">
          <mxGeometry x="-190" y="849.38" width="108" height="48.13" as="geometry" />
        </mxCell>
        <mxCell id="skaffKzBVd656h6PqjQr-99" value="Distributed Discussion" style="rounded=1;whiteSpace=wrap;html=1;strokeColor=none;fillColor=#60a917;fontColor=#FFFFFF;fontSize=18;glass=0;shadow=1;" parent="1" vertex="1">
          <mxGeometry x="-210" y="926.57" width="100" height="48.13" as="geometry" />
        </mxCell>
        <mxCell id="skaffKzBVd656h6PqjQr-125" style="rounded=0;orthogonalLoop=1;jettySize=auto;html=1;exitX=0.978;exitY=0.525;exitDx=0;exitDy=0;entryX=0.5;entryY=1;entryDx=0;entryDy=0;fontSize=18;exitPerimeter=0;fontColor=#FFFFFF;" parent="1" source="skaffKzBVd656h6PqjQr-109" target="skaffKzBVd656h6PqjQr-122" edge="1">
          <mxGeometry relative="1" as="geometry" />
        </mxCell>
        <mxCell id="skaffKzBVd656h6PqjQr-126" style="rounded=0;orthogonalLoop=1;jettySize=auto;html=1;fontSize=18;entryX=0.005;entryY=0.613;entryDx=0;entryDy=0;entryPerimeter=0;exitX=1;exitY=0.5;exitDx=0;exitDy=0;fontColor=#FFFFFF;" parent="1" source="skaffKzBVd656h6PqjQr-109" target="skaffKzBVd656h6PqjQr-113" edge="1">
          <mxGeometry relative="1" as="geometry" />
        </mxCell>
        <mxCell id="skaffKzBVd656h6PqjQr-127" style="rounded=0;orthogonalLoop=1;jettySize=auto;html=1;exitX=1;exitY=0.5;exitDx=0;exitDy=0;entryX=0.485;entryY=0.007;entryDx=0;entryDy=0;fontSize=18;entryPerimeter=0;fontColor=#FFFFFF;" parent="1" source="skaffKzBVd656h6PqjQr-109" target="skaffKzBVd656h6PqjQr-121" edge="1">
          <mxGeometry relative="1" as="geometry">
            <mxPoint x="691" y="955.64" as="targetPoint" />
          </mxGeometry>
        </mxCell>
        <mxCell id="skaffKzBVd656h6PqjQr-109" value="Training" style="rounded=1;whiteSpace=wrap;html=1;fillColor=#008a00;fontColor=#FFFFFF;strokeColor=none;fontSize=18;glass=0;shadow=1;" parent="1" vertex="1">
          <mxGeometry x="612" y="853.77" width="90" height="50" as="geometry" />
        </mxCell>
        <mxCell id="skaffKzBVd656h6PqjQr-110" style="rounded=0;orthogonalLoop=1;jettySize=auto;html=1;exitX=0.5;exitY=0;exitDx=0;exitDy=0;fontSize=18;entryX=0;entryY=0.5;entryDx=0;entryDy=0;fontColor=#FFFFFF;strokeWidth=2;" parent="1" source="skaffKzBVd656h6PqjQr-49" target="skaffKzBVd656h6PqjQr-109" edge="1">
          <mxGeometry relative="1" as="geometry">
            <mxPoint x="512.375" y="915.64" as="sourcePoint" />
            <mxPoint x="590" y="911" as="targetPoint" />
          </mxGeometry>
        </mxCell>
        <mxCell id="skaffKzBVd656h6PqjQr-111" value="Strategy" style="rounded=1;whiteSpace=wrap;html=1;strokeColor=none;fillColor=#60a917;fontColor=#FFFFFF;fontSize=18;glass=0;shadow=1;gradientColor=none;" parent="1" vertex="1">
          <mxGeometry x="602" y="659.9999999999998" width="88" height="48.13" as="geometry" />
        </mxCell>
        <mxCell id="skaffKzBVd656h6PqjQr-112" value="Emotion" style="rounded=1;whiteSpace=wrap;html=1;strokeColor=none;fillColor=#60a917;fontColor=#FFFFFF;fontSize=18;glass=0;shadow=1;" parent="1" vertex="1">
          <mxGeometry x="695" y="717.5099999999998" width="88" height="48.13" as="geometry" />
        </mxCell>
        <mxCell id="skaffKzBVd656h6PqjQr-113" value="Fine-Tuning on MGAS" style="rounded=1;whiteSpace=wrap;html=1;strokeColor=none;fillColor=#60a917;fontColor=#FFFFFF;fontSize=18;glass=0;shadow=1;" parent="1" vertex="1">
          <mxGeometry x="742" y="878.4399999999999" width="138" height="48.13" as="geometry" />
        </mxCell>
        <mxCell id="skaffKzBVd656h6PqjQr-121" value="&lt;div&gt;Synthesizing Data For Training&lt;/div&gt;" style="rounded=1;whiteSpace=wrap;html=1;strokeColor=none;fillColor=#60a917;fontColor=#FFFFFF;fontSize=18;glass=0;shadow=1;" parent="1" vertex="1">
          <mxGeometry x="650" y="940" width="158" height="48.13" as="geometry" />
        </mxCell>
        <mxCell id="skaffKzBVd656h6PqjQr-122" value="&lt;span style=&quot;background-color: initial;&quot;&gt;Reinforcement Learning&lt;/span&gt;&lt;br&gt;&amp;nbsp;on MGAS" style="rounded=1;whiteSpace=wrap;html=1;strokeColor=none;fillColor=#60a917;fontColor=#FFFFFF;fontSize=18;glass=0;shadow=1;" parent="1" vertex="1">
          <mxGeometry x="670" y="788.1300000000001" width="210" height="48.13" as="geometry" />
        </mxCell>
        <mxCell id="4mtZTrKe0Ws6-dNjXsxN-1" style="rounded=0;orthogonalLoop=1;jettySize=auto;html=1;exitX=0.5;exitY=0;exitDx=0;exitDy=0;fontSize=18;fontColor=#FFFFFF;" parent="1" source="skaffKzBVd656h6PqjQr-66" target="skaffKzBVd656h6PqjQr-82" edge="1">
          <mxGeometry relative="1" as="geometry">
            <mxPoint x="390" y="821.64" as="sourcePoint" />
            <mxPoint x="404" y="693.64" as="targetPoint" />
          </mxGeometry>
        </mxCell>
        <mxCell id="4mtZTrKe0Ws6-dNjXsxN-2" value="Self-Refine" style="rounded=1;whiteSpace=wrap;html=1;strokeColor=none;fillColor=#60a917;fontColor=#FFFFFF;fontSize=18;glass=0;shadow=1;" parent="1" vertex="1">
          <mxGeometry x="67.99999999999989" y="655.6099999999999" width="88" height="48.13" as="geometry" />
        </mxCell>
        <mxCell id="4mtZTrKe0Ws6-dNjXsxN-3" style="rounded=0;orthogonalLoop=1;jettySize=auto;html=1;entryX=0.5;entryY=1;entryDx=0;entryDy=0;fontSize=18;exitX=0.431;exitY=0.005;exitDx=0;exitDy=0;exitPerimeter=0;fontColor=#FFFFFF;" parent="1" source="skaffKzBVd656h6PqjQr-93" target="4mtZTrKe0Ws6-dNjXsxN-2" edge="1">
          <mxGeometry relative="1" as="geometry">
            <mxPoint x="60" y="845.64" as="sourcePoint" />
            <mxPoint x="112" y="709.38" as="targetPoint" />
          </mxGeometry>
        </mxCell>
        <mxCell id="4mtZTrKe0Ws6-dNjXsxN-4" style="rounded=0;orthogonalLoop=1;jettySize=auto;html=1;fontSize=18;entryX=0;entryY=0.75;entryDx=0;entryDy=0;exitX=0.5;exitY=0;exitDx=0;exitDy=0;fontColor=#FFFFFF;" parent="1" source="skaffKzBVd656h6PqjQr-60" target="skaffKzBVd656h6PqjQr-112" edge="1">
          <mxGeometry relative="1" as="geometry">
            <mxPoint x="597" y="767.64" as="targetPoint" />
            <mxPoint x="524" y="853.64" as="sourcePoint" />
          </mxGeometry>
        </mxCell>
        <mxCell id="skaffKzBVd656h6PqjQr-1" value="&lt;div&gt;&lt;span style=&quot;background-color: initial;&quot;&gt;Profile&lt;/span&gt;&lt;/div&gt;" style="rounded=1;whiteSpace=wrap;html=1;fillColor=#a0522d;fontColor=#ffffff;strokeColor=none;fontSize=18;glass=0;shadow=1;dashed=1;" parent="1" vertex="1">
          <mxGeometry x="145" y="1190" width="78.5" height="55.5" as="geometry" />
        </mxCell>
        <mxCell id="skaffKzBVd656h6PqjQr-2" value="Action" style="rounded=1;whiteSpace=wrap;html=1;fillColor=#a0522d;fontColor=#ffffff;strokeColor=none;fontSize=18;glass=0;shadow=1;dashed=1;" parent="1" vertex="1">
          <mxGeometry x="238.75" y="1190" width="96.75" height="55.5" as="geometry" />
        </mxCell>
        <mxCell id="skaffKzBVd656h6PqjQr-10" value="&lt;font style=&quot;font-size: 22px;&quot;&gt;LLM-based Multi-Agent Systems&lt;/font&gt;" style="rounded=1;whiteSpace=wrap;html=1;fillColor=#a0522d;fontColor=#ffffff;strokeColor=none;fontSize=22;glass=0;shadow=1;" parent="1" vertex="1">
          <mxGeometry x="269.57" y="1012.97" width="215.25" height="62.19" as="geometry" />
        </mxCell>
        <mxCell id="skaffKzBVd656h6PqjQr-17" value="Memory" style="rounded=1;whiteSpace=wrap;html=1;fillColor=#a0522d;fontColor=#ffffff;strokeColor=none;fontSize=18;glass=0;shadow=1;dashed=1;" parent="1" vertex="1">
          <mxGeometry x="348.5" y="1190" width="80.75" height="55.5" as="geometry" />
        </mxCell>
        <mxCell id="skaffKzBVd656h6PqjQr-29" value="" style="endArrow=classic;html=1;rounded=0;exitX=0.5;exitY=0;exitDx=0;exitDy=0;entryX=0.25;entryY=1;entryDx=0;entryDy=0;strokeWidth=4;fillColor=#a0522d;strokeColor=#6D1F00;fontSize=18;" parent="1" source="skaffKzBVd656h6PqjQr-1" target="skaffKzBVd656h6PqjQr-33" edge="1">
          <mxGeometry width="50" height="50" relative="1" as="geometry">
            <mxPoint x="111.91" y="1279" as="sourcePoint" />
            <mxPoint x="128.41" y="1270" as="targetPoint" />
          </mxGeometry>
        </mxCell>
        <mxCell id="skaffKzBVd656h6PqjQr-30" value="" style="endArrow=classic;html=1;rounded=0;exitX=0.5;exitY=0;exitDx=0;exitDy=0;entryX=0.5;entryY=1;entryDx=0;entryDy=0;strokeWidth=4;fillColor=#a0522d;strokeColor=#6D1F00;fontSize=18;" parent="1" source="skaffKzBVd656h6PqjQr-2" target="skaffKzBVd656h6PqjQr-33" edge="1">
          <mxGeometry width="50" height="50" relative="1" as="geometry">
            <mxPoint x="80.41" y="1359" as="sourcePoint" />
            <mxPoint x="169.25000000000014" y="1269.5625" as="targetPoint" />
          </mxGeometry>
        </mxCell>
        <mxCell id="skaffKzBVd656h6PqjQr-31" value="" style="endArrow=classic;html=1;rounded=0;exitX=0.5;exitY=0;exitDx=0;exitDy=0;entryX=0.75;entryY=1;entryDx=0;entryDy=0;strokeWidth=4;fillColor=#a0522d;strokeColor=#6D1F00;fontSize=18;" parent="1" source="skaffKzBVd656h6PqjQr-17" target="skaffKzBVd656h6PqjQr-33" edge="1">
          <mxGeometry width="50" height="50" relative="1" as="geometry">
            <mxPoint x="180.41" y="1359" as="sourcePoint" />
            <mxPoint x="210.2500000000001" y="1269.5625" as="targetPoint" />
          </mxGeometry>
        </mxCell>
        <mxCell id="skaffKzBVd656h6PqjQr-33" value="Generative Agent" style="rounded=1;whiteSpace=wrap;html=1;fillColor=#a0522d;fontColor=#ffffff;strokeColor=none;fontSize=18;glass=0;shadow=1;" parent="1" vertex="1">
          <mxGeometry x="174" y="1110" width="180" height="48.13" as="geometry" />
        </mxCell>
        <mxCell id="skaffKzBVd656h6PqjQr-64" style="rounded=0;orthogonalLoop=1;jettySize=auto;html=1;exitX=0.5;exitY=0;exitDx=0;exitDy=0;entryX=0.5;entryY=1;entryDx=0;entryDy=0;strokeWidth=3;fillColor=#a0522d;strokeColor=#6D1F00;fontSize=18;" parent="1" source="skaffKzBVd656h6PqjQr-34" target="skaffKzBVd656h6PqjQr-10" edge="1">
          <mxGeometry relative="1" as="geometry" />
        </mxCell>
        <mxCell id="skaffKzBVd656h6PqjQr-34" value="Environment" style="rounded=1;whiteSpace=wrap;html=1;fillColor=#a0522d;fontColor=#ffffff;strokeColor=none;fontSize=18;dashed=1;" parent="1" vertex="1">
          <mxGeometry x="445" y="1110" width="109" height="48.13" as="geometry" />
        </mxCell>
        <mxCell id="skaffKzBVd656h6PqjQr-37" value="Rules" style="rounded=1;whiteSpace=wrap;html=1;fillColor=#a0522d;fontColor=#ffffff;strokeColor=none;fontSize=18;glass=0;shadow=1;" parent="1" vertex="1">
          <mxGeometry x="463.75" y="1190" width="53.5" height="55.5" as="geometry" />
        </mxCell>
        <mxCell id="skaffKzBVd656h6PqjQr-39" value="" style="endArrow=classic;html=1;rounded=0;exitX=0.5;exitY=0;exitDx=0;exitDy=0;entryX=0.5;entryY=1;entryDx=0;entryDy=0;strokeWidth=4;fillColor=#a0522d;strokeColor=#6D1F00;fontSize=18;" parent="1" source="skaffKzBVd656h6PqjQr-37" target="skaffKzBVd656h6PqjQr-34" edge="1">
          <mxGeometry width="50" height="50" relative="1" as="geometry">
            <mxPoint x="456.25" y="1359" as="sourcePoint" />
            <mxPoint x="371.25" y="1307" as="targetPoint" />
          </mxGeometry>
        </mxCell>
        <mxCell id="skaffKzBVd656h6PqjQr-42" value="" style="endArrow=classic;html=1;rounded=0;exitX=0.5;exitY=0;exitDx=0;exitDy=0;entryX=0.5;entryY=1;entryDx=0;entryDy=0;strokeWidth=3;fillColor=#a0522d;strokeColor=#6D1F00;fontSize=18;" parent="1" source="skaffKzBVd656h6PqjQr-33" target="skaffKzBVd656h6PqjQr-10" edge="1">
          <mxGeometry width="50" height="50" relative="1" as="geometry">
            <mxPoint x="214" y="1200" as="sourcePoint" />
            <mxPoint x="388" y="1110" as="targetPoint" />
          </mxGeometry>
        </mxCell>
        <mxCell id="EdyCbkl_p3JUXa9mk3wl-1" value="LLM" style="rounded=1;whiteSpace=wrap;html=1;fillColor=#a0522d;fontColor=#ffffff;strokeColor=none;fontSize=18;glass=0;shadow=1;dashed=1;" parent="1" vertex="1">
          <mxGeometry x="55" y="1190" width="78.5" height="55.5" as="geometry" />
        </mxCell>
        <mxCell id="EdyCbkl_p3JUXa9mk3wl-2" value="" style="endArrow=classic;html=1;rounded=0;exitX=0.5;exitY=0;exitDx=0;exitDy=0;entryX=0;entryY=1;entryDx=0;entryDy=0;strokeWidth=4;fillColor=#a0522d;strokeColor=#6D1F00;fontSize=18;" parent="1" source="EdyCbkl_p3JUXa9mk3wl-1" target="skaffKzBVd656h6PqjQr-33" edge="1">
          <mxGeometry width="50" height="50" relative="1" as="geometry">
            <mxPoint x="204" y="1200" as="sourcePoint" />
            <mxPoint x="241" y="1168" as="targetPoint" />
          </mxGeometry>
        </mxCell>
        <mxCell id="CL27KBF6f4KL-h8ZXocw-2" value="Intervention interfaces" style="rounded=1;whiteSpace=wrap;html=1;fillColor=#a0522d;fontColor=#ffffff;strokeColor=none;fontSize=18;textShadow=0;glass=0;shadow=1;" parent="1" vertex="1">
          <mxGeometry x="605" y="1190" width="110" height="55.5" as="geometry" />
        </mxCell>
        <mxCell id="CL27KBF6f4KL-h8ZXocw-4" value="" style="endArrow=classic;html=1;rounded=0;exitX=0.5;exitY=0;exitDx=0;exitDy=0;strokeWidth=4;fillColor=#a0522d;strokeColor=#6D1F00;fontSize=18;" parent="1" source="CL27KBF6f4KL-h8ZXocw-2" target="skaffKzBVd656h6PqjQr-34" edge="1">
          <mxGeometry width="50" height="50" relative="1" as="geometry">
            <mxPoint x="501" y="1200" as="sourcePoint" />
            <mxPoint x="441" y="1168" as="targetPoint" />
          </mxGeometry>
        </mxCell>
        <mxCell id="CL27KBF6f4KL-h8ZXocw-6" value="Tools" style="rounded=1;whiteSpace=wrap;html=1;fillColor=#a0522d;fontColor=#ffffff;strokeColor=none;fontSize=18;glass=0;shadow=1;" parent="1" vertex="1">
          <mxGeometry x="531.75" y="1190" width="53.5" height="55.5" as="geometry" />
        </mxCell>
        <mxCell id="CL27KBF6f4KL-h8ZXocw-7" value="" style="endArrow=classic;html=1;rounded=0;exitX=0.5;exitY=0;exitDx=0;exitDy=0;strokeWidth=4;fillColor=#a0522d;strokeColor=#6D1F00;fontSize=18;" parent="1" source="CL27KBF6f4KL-h8ZXocw-6" target="skaffKzBVd656h6PqjQr-34" edge="1">
          <mxGeometry width="50" height="50" relative="1" as="geometry">
            <mxPoint x="501" y="1200" as="sourcePoint" />
            <mxPoint x="510" y="1168" as="targetPoint" />
          </mxGeometry>
        </mxCell>
        <mxCell id="Tc7P8LKHMEHr6oD4uBUF-1" value="Generative Agent" style="rounded=1;whiteSpace=wrap;html=1;fillColor=#a0522d;fontColor=#ffffff;strokeColor=none;fontSize=18;glass=0;shadow=1;" parent="1" vertex="1">
          <mxGeometry x="-70" y="1110" width="180" height="48.13" as="geometry" />
        </mxCell>
        <mxCell id="Tc7P8LKHMEHr6oD4uBUF-4" value="&lt;b&gt;&lt;font style=&quot;font-size: 21px;&quot;&gt;...&lt;/font&gt;&lt;/b&gt;" style="text;html=1;align=center;verticalAlign=middle;whiteSpace=wrap;rounded=0;" parent="1" vertex="1">
          <mxGeometry x="111" y="1129" width="60" height="30" as="geometry" />
        </mxCell>
        <mxCell id="Tc7P8LKHMEHr6oD4uBUF-5" value="" style="endArrow=classic;html=1;rounded=0;strokeWidth=3;fillColor=#a0522d;strokeColor=#6D1F00;fontSize=18;entryX=0.5;entryY=1;entryDx=0;entryDy=0;" parent="1" source="Tc7P8LKHMEHr6oD4uBUF-1" target="skaffKzBVd656h6PqjQr-10" edge="1">
          <mxGeometry width="50" height="50" relative="1" as="geometry">
            <mxPoint y="1110" as="sourcePoint" />
            <mxPoint x="113" y="1075" as="targetPoint" />
          </mxGeometry>
        </mxCell>
      </root>
    </mxGraphModel>
  </diagram>
  <diagram id="0bWGjBheT1xtGQ3-5Z4j" name="environment-conponets">
    <mxGraphModel dx="988" dy="539" grid="1" gridSize="10" guides="1" tooltips="1" connect="1" arrows="1" fold="1" page="1" pageScale="1" pageWidth="827" pageHeight="1169" math="0" shadow="0">
      <root>
        <mxCell id="0" />
        <mxCell id="1" parent="0" />
        <mxCell id="aOGlwenCFgNjmDu3Sfx9-1" value="ENVIRONMENT" style="rounded=1;whiteSpace=wrap;html=1;dashed=1;dashPattern=8 8;verticalAlign=top;" vertex="1" parent="1">
          <mxGeometry x="110" y="290" width="510" height="530" as="geometry" />
        </mxCell>
        <mxCell id="aOGlwenCFgNjmDu3Sfx9-2" value="TOOLS" style="rounded=1;whiteSpace=wrap;html=1;verticalAlign=top;" vertex="1" parent="1">
          <mxGeometry x="160" y="360" width="190" height="190" as="geometry" />
        </mxCell>
        <mxCell id="aOGlwenCFgNjmDu3Sfx9-3" value="RULS" style="rounded=1;whiteSpace=wrap;html=1;verticalAlign=top;" vertex="1" parent="1">
          <mxGeometry x="380" y="360" width="200" height="190" as="geometry" />
        </mxCell>
        <mxCell id="YjcnA5tS1VcOCI9oo2fW-81" style="edgeStyle=orthogonalEdgeStyle;rounded=0;orthogonalLoop=1;jettySize=auto;html=1;entryX=1;entryY=0.75;entryDx=0;entryDy=0;" edge="1" parent="1" source="YjcnA5tS1VcOCI9oo2fW-8" target="YjcnA5tS1VcOCI9oo2fW-80">
          <mxGeometry relative="1" as="geometry">
            <Array as="points">
              <mxPoint x="260" y="510" />
              <mxPoint x="260" y="510" />
            </Array>
          </mxGeometry>
        </mxCell>
        <mxCell id="YjcnA5tS1VcOCI9oo2fW-8" value="social media&lt;div&gt;env&lt;/div&gt;" style="shape=xor;whiteSpace=wrap;html=1;align=center;fillColor=#f8cecc;strokeColor=#b85450;" vertex="1" parent="1">
          <mxGeometry x="275" y="430" width="60" height="80" as="geometry" />
        </mxCell>
        <mxCell id="YjcnA5tS1VcOCI9oo2fW-11" value="" style="edgeStyle=orthogonalEdgeStyle;rounded=0;orthogonalLoop=1;jettySize=auto;html=1;" edge="1" parent="1" source="YjcnA5tS1VcOCI9oo2fW-10" target="YjcnA5tS1VcOCI9oo2fW-8">
          <mxGeometry relative="1" as="geometry">
            <Array as="points">
              <mxPoint x="270" y="449" />
              <mxPoint x="270" y="449" />
            </Array>
          </mxGeometry>
        </mxCell>
        <mxCell id="YjcnA5tS1VcOCI9oo2fW-10" value="like" style="rounded=1;whiteSpace=wrap;html=1;" vertex="1" parent="1">
          <mxGeometry x="175" y="440" width="35" height="17.5" as="geometry" />
        </mxCell>
        <mxCell id="YjcnA5tS1VcOCI9oo2fW-21" style="rounded=1;orthogonalLoop=1;jettySize=auto;html=1;labelBorderColor=none;textShadow=0;dashed=1;edgeStyle=orthogonalEdgeStyle;jumpStyle=sharp;startArrow=classic;startFill=1;" edge="1" parent="1" source="YjcnA5tS1VcOCI9oo2fW-16" target="YjcnA5tS1VcOCI9oo2fW-19">
          <mxGeometry relative="1" as="geometry" />
        </mxCell>
        <mxCell id="YjcnA5tS1VcOCI9oo2fW-22" value="" style="edgeStyle=orthogonalEdgeStyle;rounded=0;orthogonalLoop=1;jettySize=auto;html=1;entryX=0;entryY=0.5;entryDx=0;entryDy=0;startArrow=cross;startFill=0;" edge="1" parent="1" source="YjcnA5tS1VcOCI9oo2fW-16" target="YjcnA5tS1VcOCI9oo2fW-17">
          <mxGeometry relative="1" as="geometry" />
        </mxCell>
        <mxCell id="YjcnA5tS1VcOCI9oo2fW-16" value="agent-a" style="rounded=1;whiteSpace=wrap;html=1;fillColor=#dae8fc;strokeColor=#6c8ebf;" vertex="1" parent="1">
          <mxGeometry x="392" y="435.5" width="44" height="22" as="geometry" />
        </mxCell>
        <mxCell id="YjcnA5tS1VcOCI9oo2fW-24" style="edgeStyle=orthogonalEdgeStyle;rounded=0;orthogonalLoop=1;jettySize=auto;html=1;entryX=0;entryY=0.5;entryDx=0;entryDy=0;startArrow=classic;startFill=1;" edge="1" parent="1" source="YjcnA5tS1VcOCI9oo2fW-17" target="YjcnA5tS1VcOCI9oo2fW-18">
          <mxGeometry relative="1" as="geometry" />
        </mxCell>
        <mxCell id="YjcnA5tS1VcOCI9oo2fW-17" value="agent-b" style="rounded=1;whiteSpace=wrap;html=1;fillColor=#dae8fc;strokeColor=#6c8ebf;" vertex="1" parent="1">
          <mxGeometry x="463" y="435.5" width="44" height="22" as="geometry" />
        </mxCell>
        <mxCell id="YjcnA5tS1VcOCI9oo2fW-18" value="agent-c" style="rounded=1;whiteSpace=wrap;html=1;fillColor=#dae8fc;strokeColor=#6c8ebf;" vertex="1" parent="1">
          <mxGeometry x="530" y="435.5" width="44" height="22" as="geometry" />
        </mxCell>
        <mxCell id="YjcnA5tS1VcOCI9oo2fW-19" value="environment" style="rounded=0;whiteSpace=wrap;html=1;fillColor=#f8cecc;strokeColor=#b85450;" vertex="1" parent="1">
          <mxGeometry x="405" y="510" width="155" height="21" as="geometry" />
        </mxCell>
        <mxCell id="YjcnA5tS1VcOCI9oo2fW-65" value="" style="group" vertex="1" connectable="0" parent="1">
          <mxGeometry x="160" y="600" width="420" height="190" as="geometry" />
        </mxCell>
        <mxCell id="aOGlwenCFgNjmDu3Sfx9-4" value="INTERVENTION INTERFACES" style="rounded=1;whiteSpace=wrap;html=1;verticalAlign=top;container=0;" vertex="1" parent="YjcnA5tS1VcOCI9oo2fW-65">
          <mxGeometry width="420" height="190" as="geometry" />
        </mxCell>
        <mxCell id="YjcnA5tS1VcOCI9oo2fW-41" value="" style="shape=flexArrow;endArrow=classic;html=1;rounded=0;entryX=0;entryY=0.5;entryDx=0;entryDy=0;" edge="1" parent="YjcnA5tS1VcOCI9oo2fW-65" target="YjcnA5tS1VcOCI9oo2fW-25">
          <mxGeometry width="50" height="50" relative="1" as="geometry">
            <mxPoint x="20" y="55" as="sourcePoint" />
            <mxPoint x="65" y="70" as="targetPoint" />
          </mxGeometry>
        </mxCell>
        <mxCell id="YjcnA5tS1VcOCI9oo2fW-67" style="edgeStyle=orthogonalEdgeStyle;rounded=0;orthogonalLoop=1;jettySize=auto;html=1;" edge="1" parent="YjcnA5tS1VcOCI9oo2fW-65" source="YjcnA5tS1VcOCI9oo2fW-25" target="YjcnA5tS1VcOCI9oo2fW-35">
          <mxGeometry relative="1" as="geometry" />
        </mxCell>
        <mxCell id="YjcnA5tS1VcOCI9oo2fW-25" value="env" style="rounded=0;whiteSpace=wrap;html=1;verticalAlign=top;container=0;fillColor=#f8cecc;strokeColor=#b85450;" vertex="1" parent="YjcnA5tS1VcOCI9oo2fW-65">
          <mxGeometry x="110" y="30" width="120" height="50" as="geometry" />
        </mxCell>
        <mxCell id="YjcnA5tS1VcOCI9oo2fW-26" value="agent-a" style="rounded=1;whiteSpace=wrap;html=1;fillColor=#dae8fc;strokeColor=#6c8ebf;container=0;" vertex="1" parent="YjcnA5tS1VcOCI9oo2fW-65">
          <mxGeometry x="120" y="50" width="47" height="21" as="geometry" />
        </mxCell>
        <mxCell id="YjcnA5tS1VcOCI9oo2fW-35" value="env" style="rounded=0;whiteSpace=wrap;html=1;verticalAlign=top;container=0;fillColor=#f8cecc;strokeColor=#b85450;" vertex="1" parent="YjcnA5tS1VcOCI9oo2fW-65">
          <mxGeometry x="263.5" y="30" width="120" height="50" as="geometry" />
        </mxCell>
        <mxCell id="YjcnA5tS1VcOCI9oo2fW-29" value="agent-a" style="rounded=1;whiteSpace=wrap;html=1;fillColor=#d5e8d4;strokeColor=#82b366;container=0;" vertex="1" parent="YjcnA5tS1VcOCI9oo2fW-65">
          <mxGeometry x="270" y="50" width="47" height="21" as="geometry" />
        </mxCell>
        <mxCell id="YjcnA5tS1VcOCI9oo2fW-42" value="intervention" style="text;html=1;align=center;verticalAlign=middle;whiteSpace=wrap;rounded=0;container=0;" vertex="1" parent="YjcnA5tS1VcOCI9oo2fW-65">
          <mxGeometry x="25" y="29" width="60" height="30" as="geometry" />
        </mxCell>
        <mxCell id="YjcnA5tS1VcOCI9oo2fW-44" value="interfaces" style="text;html=1;align=center;verticalAlign=middle;whiteSpace=wrap;rounded=0;container=0;" vertex="1" parent="YjcnA5tS1VcOCI9oo2fW-65">
          <mxGeometry x="25" y="53" width="60" height="30" as="geometry" />
        </mxCell>
        <mxCell id="YjcnA5tS1VcOCI9oo2fW-66" value="" style="endArrow=none;html=1;rounded=0;entryX=1;entryY=0.5;entryDx=0;entryDy=0;exitX=0;exitY=0.5;exitDx=0;exitDy=0;dashed=1;dashPattern=12 12;" edge="1" parent="YjcnA5tS1VcOCI9oo2fW-65" source="aOGlwenCFgNjmDu3Sfx9-4" target="aOGlwenCFgNjmDu3Sfx9-4">
          <mxGeometry width="50" height="50" relative="1" as="geometry">
            <mxPoint x="-125" y="140" as="sourcePoint" />
            <mxPoint x="-75" y="90" as="targetPoint" />
          </mxGeometry>
        </mxCell>
        <mxCell id="YjcnA5tS1VcOCI9oo2fW-68" value="agent-b" style="rounded=1;whiteSpace=wrap;html=1;fillColor=#dae8fc;strokeColor=#6c8ebf;container=0;" vertex="1" parent="YjcnA5tS1VcOCI9oo2fW-65">
          <mxGeometry x="177" y="50" width="47" height="21" as="geometry" />
        </mxCell>
        <mxCell id="YjcnA5tS1VcOCI9oo2fW-69" value="agent-b" style="rounded=1;whiteSpace=wrap;html=1;fillColor=#dae8fc;strokeColor=#6c8ebf;container=0;" vertex="1" parent="YjcnA5tS1VcOCI9oo2fW-65">
          <mxGeometry x="327" y="50" width="47" height="21" as="geometry" />
        </mxCell>
        <mxCell id="YjcnA5tS1VcOCI9oo2fW-78" value="" style="group;fillColor=#f8cecc;strokeColor=#b85450;" vertex="1" connectable="0" parent="YjcnA5tS1VcOCI9oo2fW-65">
          <mxGeometry x="80" y="110" width="250" height="70" as="geometry" />
        </mxCell>
        <mxCell id="YjcnA5tS1VcOCI9oo2fW-70" value="&lt;div&gt;auction&lt;span style=&quot;background-color: transparent; color: light-dark(rgb(0, 0, 0), rgb(255, 255, 255));&quot;&gt;-env&lt;/span&gt;&lt;/div&gt;" style="rounded=0;whiteSpace=wrap;html=1;verticalAlign=top;fillColor=#f8cecc;strokeColor=#b85450;" vertex="1" parent="YjcnA5tS1VcOCI9oo2fW-78">
          <mxGeometry width="250" height="70" as="geometry" />
        </mxCell>
        <mxCell id="YjcnA5tS1VcOCI9oo2fW-77" value="" style="group" vertex="1" connectable="0" parent="YjcnA5tS1VcOCI9oo2fW-78">
          <mxGeometry x="9.090909090909092" y="31" width="228.4090909090909" height="30" as="geometry" />
        </mxCell>
        <mxCell id="YjcnA5tS1VcOCI9oo2fW-72" value="agent(0$)" style="rounded=1;whiteSpace=wrap;html=1;fillColor=#dae8fc;strokeColor=#6c8ebf;container=0;" vertex="1" parent="YjcnA5tS1VcOCI9oo2fW-77">
          <mxGeometry y="9" width="70.45454545454545" height="21" as="geometry" />
        </mxCell>
        <mxCell id="YjcnA5tS1VcOCI9oo2fW-73" value="item(20$)" style="rounded=1;whiteSpace=wrap;html=1;fillColor=#dae8fc;strokeColor=#6c8ebf;container=0;" vertex="1" parent="YjcnA5tS1VcOCI9oo2fW-77">
          <mxGeometry x="157.95454545454547" y="9" width="70.45454545454545" height="21" as="geometry" />
        </mxCell>
        <mxCell id="YjcnA5tS1VcOCI9oo2fW-74" value="" style="edgeStyle=orthogonalEdgeStyle;rounded=0;orthogonalLoop=1;jettySize=auto;html=1;startArrow=dash;startFill=0;" edge="1" parent="YjcnA5tS1VcOCI9oo2fW-77">
          <mxGeometry relative="1" as="geometry">
            <mxPoint x="70.4545454545452" y="19.25999999999999" as="sourcePoint" />
            <mxPoint x="157.95454545454547" y="19.25999999999999" as="targetPoint" />
          </mxGeometry>
        </mxCell>
        <mxCell id="YjcnA5tS1VcOCI9oo2fW-75" value="blocked&lt;div&gt;intervention&lt;/div&gt;" style="text;html=1;align=center;verticalAlign=middle;whiteSpace=wrap;rounded=0;" vertex="1" parent="YjcnA5tS1VcOCI9oo2fW-78">
          <mxGeometry x="89.20454545454545" y="34" width="68.18181818181819" height="30" as="geometry" />
        </mxCell>
        <mxCell id="YjcnA5tS1VcOCI9oo2fW-80" value="database" style="shape=image;verticalLabelPosition=bottom;labelBackgroundColor=default;verticalAlign=top;aspect=fixed;imageAspect=0;editableCssRules=.*;image=data:image/svg+xml,PHN2ZyB4bWxuczp4bGluaz0iaHR0cDovL3d3dy53My5vcmcvMTk5OS94bGluayIgeG1sbnM9Imh0dHA6Ly93d3cudzMub3JnLzIwMDAvc3ZnIiBoZWlnaHQ9IjIwMCIgd2lkdGg9IjIwMCIgdmVyc2lvbj0iMS4xIiB2aWV3Qm94PSIwIDAgMTAyNCAxMDI0IiBjbGFzcz0iaWNvbiI+PHBhdGggZD0iTTk2MCAxNjB2OTZjMCA4OC40LTIwMC42IDE2MC00NDggMTYwUzY0IDM0NC40IDY0IDI1NlYxNjBDNjQgNzEuNiAyNjQuNiAwIDUxMiAwczQ0OCA3MS42IDQ0OCAxNjB6IG0tMTA5LjYgMjY5LjRjNDEuNi0xNC44IDc5LjgtMzMuOCAxMDkuNi01Ny4yVjU3NmMwIDg4LjQtMjAwLjYgMTYwLTQ0OCAxNjBTNjQgNjY0LjQgNjQgNTc2VjM3Mi4yYzI5LjggMjMuNiA2OCA0Mi40IDEwOS42IDU3LjJDMjYzLjQgNDYxLjQgMzgzIDQ4MCA1MTIgNDgwczI0OC42LTE4LjYgMzM4LjQtNTAuNnpNNjQgNjkyLjJjMjkuOCAyMy42IDY4IDQyLjQgMTA5LjYgNTcuMkMyNjMuNCA3ODEuNCAzODMgODAwIDUxMiA4MDBzMjQ4LjYtMTguNiAzMzguNC01MC42YzQxLjYtMTQuOCA3OS44LTMzLjggMTA5LjYtNTcuMlY4NjRjMCA4OC40LTIwMC42IDE2MC00NDggMTYwUzY0IDk1Mi40IDY0IDg2NHYtMTcxLjh6Ii8+PC9zdmc+;" vertex="1" parent="1">
          <mxGeometry x="172.5" y="480" width="40" height="40" as="geometry" />
        </mxCell>
        <mxCell id="YjcnA5tS1VcOCI9oo2fW-82" value="record" style="text;html=1;align=center;verticalAlign=middle;whiteSpace=wrap;rounded=0;" vertex="1" parent="1">
          <mxGeometry x="215" y="485" width="60" height="30" as="geometry" />
        </mxCell>
        <mxCell id="YjcnA5tS1VcOCI9oo2fW-83" value="instruction" style="text;html=1;align=center;verticalAlign=middle;whiteSpace=wrap;rounded=0;" vertex="1" parent="1">
          <mxGeometry x="210" y="427.5" width="60" height="30" as="geometry" />
        </mxCell>
      </root>
    </mxGraphModel>
  </diagram>
</mxfile>
